Coordinates
version=1
nRows=19
nColumns=24
inDegrees=yes

Units are S.I. units (second, meters, Newtons, ...)
Angles are in degrees.

endheader
time	pelvis_tilt	pelvis_list	pelvis_rotation	pelvis_tx	pelvis_ty	pelvis_tz	hip_flexion_r	hip_adduction_r	hip_rotation_r	knee_angle_r	ankle_angle_r	subtalar_angle_r	mtp_angle_r	hip_flexion_l	hip_adduction_l	hip_rotation_l	knee_angle_l	ankle_angle_l	subtalar_angle_l	mtp_angle_l	lumbar_extension	lumbar_bending	lumbar_rotation
      1.17983333	      3.22669570	      4.37139902	     -0.84050356	      0.15960859	      1.02530857	      0.25190936	     10.67416943	     -5.07451072	     -4.14104107	    -63.68524085	      2.79963163	    -22.54555692	     -2.70484708	      5.22894048	      7.32479060	      1.70390081	    -12.56318163	      2.94427662	    -13.86037767	      5.32016216	     -6.49466655	     -5.99462024	      4.48456000
      1.18400000	      3.20069840	      4.23879513	     -0.79332475	      0.16464786	      1.02603825	      0.25164937	     11.18471684	     -4.87512443	     -4.12194580	    -63.21418635	      3.02070791	    -22.44256919	     -2.83569126	      4.78379007	      7.21350497	      1.88467629	    -12.27002007	      3.03828323	    -13.95521018	      5.24528944	     -6.50618524	     -5.85767428	      4.19960428
      1.18816667	      3.17097365	      4.10322528	     -0.75324244	      0.16969297	      1.02672690	      0.25143124	     11.68438389	     -4.66178006	     -4.08338386	    -62.67757315	      3.24378753	    -22.34455475	     -2.94891552	      4.34531170	      7.09014069	      2.01511903	    -11.97894326	      3.12664484	    -14.00717074	      5.16887998	     -6.50688802	     -5.71657481	      3.99763990
      1.19233333	      3.14292597	      3.95929724	     -0.71771769	      0.17474510	      1.02741719	      0.25125163	     12.16180739	     -4.42847345	     -4.02993578	    -62.06464694	      3.44852482	    -22.25999303	     -2.98659532	      3.90796555	      6.94939125	      2.09927330	    -11.69256592	      3.20486336	    -14.00317751	      5.13688971	     -6.50660318	     -5.57662760	      3.87261034
      1.19650000	      3.13487414	      3.84491907	     -0.66126959	      0.17979290	      1.02806996	      0.25102272	     12.60474102	     -4.24593625	     -4.01096607	    -61.41175495	      3.66019544	    -22.12402281	     -3.07888816	      3.42837705	      6.84985271	      2.26550336	    -11.36163435	      3.26981229	    -14.08790445	      5.04542697	     -6.53529074	     -5.45944969	      3.55707484
      1.20066667	      3.07773347	      3.72042286	     -0.61446102	      0.18485661	      1.02862130	      0.25083700	     13.08842626	     -4.04226687	     -3.97244185	    -60.70103992	      3.82541938	    -22.00552800	     -3.09516293	      3.01509637	      6.72689530	      2.34856635	    -11.05711700	      3.36494907	    -14.06299884	      5.02317103	     -6.49835608	     -5.31438665	      3.45276302
      1.20483333	      3.07042143	      3.59382886	     -0.52666530	      0.18991313	      1.02923296	      0.25061154	     13.48172653	     -3.84751843	     -3.98058608	    -59.90985390	      3.98668792	    -21.84014279	     -3.14193832	      2.53667005	      6.60859036	      2.53808276	    -10.73224810	      3.44660883	    -14.14227906	      4.94946657	     -6.52479340	     -5.19864545	      3.10062673
      1.20900000	      3.02558545	      3.46378058	     -0.46680568	      0.19497417	      1.02973753	      0.25044314	     13.91075557	     -3.63480059	     -3.94591567	    -59.07651798	      4.13730625	    -21.71530763	     -3.15496743	      2.11011501	      6.47505644	      2.61846697	    -10.42419704	      3.50755471	    -14.12585993	      4.91895566	     -6.50318535	     -5.06534401	      2.96491508
      1.21316667	      3.00734497	      3.36202210	     -0.37735621	      0.20003597	      1.03022167	      0.25022554	     14.29279873	     -3.47338093	     -3.95627808	    -58.20335352	      4.26540720	    -21.57820427	     -3.18102880	      1.63645448	      6.37915416	      2.79571068	    -10.08067236	      3.59303100	    -14.19087613	      4.84717793	     -6.51807058	     -4.96272337	      2.61625209
      1.21733333	      2.95012996	      3.24334606	     -0.30556137	      0.20510789	      1.03062566	      0.25007441	     14.70108822	     -3.27707934	     -3.93217175	    -57.27199647	      4.38566614	    -21.45637169	     -3.18687137	      1.22065672	      6.25251889	      2.87584418	     -9.76525200	      3.65203296	    -14.16544286	      4.81899820	     -6.48216748	     -4.84130441	      2.47703126
      1.22150000	      2.93859805	      3.14846394	     -0.20894542	      0.21016515	      1.03104861	      0.24987778	     15.04030484	     -3.12427385	     -3.94443422	    -56.29688408	      4.47079328	    -21.35292422	     -3.20029360	      0.73486620	      6.15841594	      3.05457777	     -9.40683512	      3.72778730	    -14.22582714	      4.74562271	     -6.51099148	     -4.75092735	      2.10760074
      1.22566667	      2.88187638	      3.03711758	     -0.12245868	      0.21524488	      1.03136521	      0.24971541	     15.41150764	     -2.94797702	     -3.94378595	    -55.27113079	      4.55541568	    -21.23937424	     -3.20257544	      0.31801720	      6.03710404	      3.13628285	     -9.08877081	      3.79287571	    -14.20420081	      4.71415327	     -6.46877223	     -4.63393298	      1.95142700
      1.22983333	      2.87995272	      2.95143218	     -0.02072266	      0.22030257	      1.03170662	      0.24953784	     15.70655572	     -2.81007649	     -3.96352025	    -54.20666707	      4.59490052	    -21.17628550	     -3.20685784	     -0.17701138	      5.94673805	      3.30154856	     -8.73050352	      3.88008074	    -14.25007885	      4.64773958	     -6.50579041	     -4.55173113	      1.58894321
      1.23400000	      2.80911385	      2.84816407	      0.07089343	      0.22538578	      1.03191916	      0.24938779	     16.05932852	     -2.64795128	     -3.96577230	    -53.09571194	      4.64925836	    -21.07223498	     -3.20642055	     -0.57842446	      5.83001175	      3.38107257	     -8.40964900	      3.93855594	    -14.22211799	      4.61770912	     -6.45088008	     -4.44627594	      1.42854395
      1.23816667	      2.80499880	      2.76704516	      0.17856559	      0.23044450	      1.03217183	      0.24921754	     16.32196987	     -2.52142716	     -3.99214709	    -51.94507267	      4.64215070	    -21.05044104	     -3.20570512	     -1.06895550	      5.73948717	      3.53965801	     -8.05325803	      4.03058052	    -14.25731580	      4.55270796	     -6.48576930	     -4.36900439	      1.05795548
      1.24233333	      2.74022733	      2.68461626	      0.28305748	      0.23552068	      1.03228955	      0.24906292	     16.63691713	     -2.39480991	     -4.01392274	    -50.76202108	      4.63993004	    -20.99483756	     -3.20228067	     -1.48041094	      5.64360742	      3.65456796	     -7.72383660	      4.11065268	    -14.26420364	      4.49483247	     -6.43884768	     -4.28596758	      0.79874978
      1.24650000	      2.67532228	      2.59789500	      0.37854438	      0.24059976	      1.03236536	      0.24892892	     16.93557300	     -2.26336678	     -4.02727327	    -49.53957560	      4.64738031	    -20.91067173	     -3.19972646	     -1.88566863	      5.53888681	      3.72663020	     -7.40427080	      4.17587905	    -14.22559815	      4.46565769	     -6.39869904	     -4.19786670	      0.62667110
      1.25066667	      2.64580443	      2.52505955	      0.48847916	      0.24566598	      1.03244650	      0.24878493	     17.17456488	     -2.15309893	     -4.05489681	    -48.27306260	      4.57724706	    -20.93227484	     -3.19537917	     -2.33672632	      5.44977956	      3.86094749	     -7.07156493	      4.28444462	    -14.23378461	      4.41184392	     -6.39707652	     -4.13092965	      0.28090839
      1.25483333	      2.60392140	      2.45091290	      0.58991952	      0.25072711	      1.03247141	      0.24865816	     17.41214945	     -2.04214659	     -4.07275695	    -46.97270010	      4.52779936	    -20.90346119	     -3.18646995	     -2.76827535	      5.35651519	      3.96862786	     -6.74723154	      4.36012667	    -14.22644650	      4.35373221	     -6.38851925	     -4.06162717	      0.00470749
